<svg xmlns="http://www.w3.org/2000/svg" viewBox="0 0 211.04 3.46"><defs><style>.cls-1,.cls-2{fill:#fff;}.cls-1{stroke:#fff;stroke-miterlimit:10;stroke-width:0.5px;}</style></defs><title>Fichier 3</title><g id="Calque_2" data-name="Calque 2"><g id="Calque_1-2" data-name="Calque 1"><line class="cls-1" x1="0.58" y1="0.25" x2="211.04" y2="0.25"/><line class="cls-1" x1="0.58" y1="3.21" x2="211.04" y2="3.21"/><polygon class="cls-2" points="1.31 3.21 0 3.21 1.56 0.25 2.87 0.25 1.31 3.21"/><polygon class="cls-2" points="4.29 3.21 2.97 3.21 4.53 0.25 5.84 0.25 4.29 3.21"/><polygon class="cls-2" points="7.26 3.21 5.95 3.21 7.51 0.25 8.82 0.25 7.26 3.21"/><polygon class="cls-2" points="10.23 3.21 8.92 3.21 10.48 0.25 11.79 0.25 10.23 3.21"/><polygon class="cls-2" points="13.21 3.21 11.89 3.21 13.45 0.25 14.77 0.25 13.21 3.21"/><polygon class="cls-2" points="16.18 3.21 14.87 3.21 16.43 0.25 17.74 0.25 16.18 3.21"/><polygon class="cls-2" points="19.15 3.21 17.84 3.21 19.4 0.25 20.71 0.25 19.15 3.21"/><polygon class="cls-2" points="22.13 3.21 20.81 3.21 22.37 0.25 23.69 0.25 22.13 3.21"/><polygon class="cls-2" points="25.1 3.21 23.79 3.21 25.35 0.25 26.66 0.25 25.1 3.21"/><polygon class="cls-2" points="28.07 3.21 26.76 3.21 28.32 0.25 29.63 0.25 28.07 3.21"/><polygon class="cls-2" points="31.05 3.21 29.73 3.21 31.29 0.25 32.61 0.25 31.05 3.21"/><polygon class="cls-2" points="34.02 3.21 32.71 3.21 34.27 0.25 35.58 0.25 34.02 3.21"/><polygon class="cls-2" points="36.99 3.21 35.68 3.21 37.24 0.25 38.55 0.25 36.99 3.21"/><polygon class="cls-2" points="39.97 3.21 38.66 3.21 40.21 0.25 41.53 0.25 39.97 3.21"/><polygon class="cls-2" points="42.94 3.21 41.63 3.21 43.19 0.25 44.5 0.25 42.94 3.21"/><polygon class="cls-2" points="45.91 3.21 44.6 3.21 46.16 0.25 47.47 0.25 45.91 3.21"/><polygon class="cls-2" points="48.89 3.21 47.58 3.21 49.13 0.25 50.45 0.25 48.89 3.21"/><polygon class="cls-2" points="51.86 3.21 50.55 3.21 52.11 0.25 53.42 0.25 51.86 3.21"/><polygon class="cls-2" points="54.84 3.21 53.52 3.21 55.08 0.25 56.39 0.25 54.84 3.21"/><polygon class="cls-2" points="57.81 3.21 56.5 3.21 58.05 0.25 59.37 0.25 57.81 3.21"/><polygon class="cls-2" points="60.78 3.21 59.47 3.21 61.03 0.25 62.34 0.25 60.78 3.21"/><polygon class="cls-2" points="63.76 3.21 62.44 3.21 64 0.25 65.31 0.25 63.76 3.21"/><polygon class="cls-2" points="66.73 3.21 65.42 3.21 66.98 0.25 68.29 0.25 66.73 3.21"/><polygon class="cls-2" points="69.7 3.21 68.39 3.21 69.95 0.25 71.26 0.25 69.7 3.21"/><polygon class="cls-2" points="72.68 3.21 71.36 3.21 72.92 0.25 74.23 0.25 72.68 3.21"/><polygon class="cls-2" points="75.65 3.21 74.34 3.21 75.9 0.25 77.21 0.25 75.65 3.21"/><polygon class="cls-2" points="78.62 3.21 77.31 3.21 78.87 0.25 80.18 0.25 78.62 3.21"/><polygon class="cls-2" points="81.6 3.21 80.28 3.21 81.84 0.25 83.16 0.25 81.6 3.21"/><polygon class="cls-2" points="84.57 3.21 83.26 3.21 84.82 0.25 86.13 0.25 84.57 3.21"/><polygon class="cls-2" points="87.54 3.21 86.23 3.21 87.79 0.25 89.1 0.25 87.54 3.21"/><polygon class="cls-2" points="90.52 3.21 89.2 3.21 90.76 0.25 92.08 0.25 90.52 3.21"/><polygon class="cls-2" points="93.49 3.21 92.18 3.21 93.74 0.25 95.05 0.25 93.49 3.21"/><polygon class="cls-2" points="96.47 3.21 95.15 3.21 96.71 0.25 98.02 0.25 96.47 3.21"/><polygon class="cls-2" points="99.44 3.21 98.13 3.21 99.68 0.25 101 0.25 99.44 3.21"/><polygon class="cls-2" points="102.41 3.21 101.1 3.21 102.66 0.25 103.97 0.25 102.41 3.21"/><polygon class="cls-2" points="105.39 3.21 104.07 3.21 105.63 0.25 106.94 0.25 105.39 3.21"/><polygon class="cls-2" points="108.36 3.21 107.05 3.21 108.61 0.25 109.92 0.25 108.36 3.21"/><polygon class="cls-2" points="111.36 3.21 110.05 3.21 111.61 0.25 112.92 0.25 111.36 3.21"/><polygon class="cls-2" points="114.33 3.21 113.02 3.21 114.58 0.25 115.89 0.25 114.33 3.21"/><polygon class="cls-2" points="117.31 3.21 115.99 3.21 117.55 0.25 118.86 0.25 117.31 3.21"/><polygon class="cls-2" points="120.28 3.21 118.97 3.21 120.53 0.25 121.84 0.25 120.28 3.21"/><polygon class="cls-2" points="123.25 3.21 121.94 3.21 123.5 0.25 124.81 0.25 123.25 3.21"/><polygon class="cls-2" points="126.23 3.21 124.91 3.21 126.47 0.25 127.79 0.25 126.23 3.21"/><polygon class="cls-2" points="129.2 3.21 127.89 3.21 129.45 0.25 130.76 0.25 129.2 3.21"/><polygon class="cls-2" points="132.17 3.21 130.86 3.21 132.42 0.25 133.73 0.25 132.17 3.21"/><polygon class="cls-2" points="135.15 3.21 133.84 3.21 135.39 0.25 136.71 0.25 135.15 3.21"/><polygon class="cls-2" points="138.12 3.21 136.81 3.21 138.37 0.25 139.68 0.25 138.12 3.21"/><polygon class="cls-2" points="141.09 3.21 139.78 3.21 141.34 0.25 142.65 0.25 141.09 3.21"/><polygon class="cls-2" points="144.07 3.21 142.75 3.21 144.31 0.25 145.63 0.25 144.07 3.21"/><polygon class="cls-2" points="147.04 3.21 145.73 3.21 147.29 0.25 148.6 0.25 147.04 3.21"/><polygon class="cls-2" points="150.01 3.21 148.7 3.21 150.26 0.25 151.57 0.25 150.01 3.21"/><polygon class="cls-2" points="152.99 3.21 151.68 3.21 153.24 0.25 154.55 0.25 152.99 3.21"/><polygon class="cls-2" points="155.96 3.21 154.65 3.21 156.21 0.25 157.52 0.25 155.96 3.21"/><polygon class="cls-2" points="158.94 3.21 157.62 3.21 159.18 0.25 160.49 0.25 158.94 3.21"/><polygon class="cls-2" points="161.91 3.21 160.6 3.21 162.16 0.25 163.47 0.25 161.91 3.21"/><polygon class="cls-2" points="164.88 3.21 163.57 3.21 165.13 0.25 166.44 0.25 164.88 3.21"/><polygon class="cls-2" points="167.86 3.21 166.54 3.21 168.1 0.25 169.41 0.25 167.86 3.21"/><polygon class="cls-2" points="170.83 3.21 169.52 3.21 171.08 0.25 172.39 0.25 170.83 3.21"/><polygon class="cls-2" points="173.8 3.21 172.49 3.21 174.05 0.25 175.36 0.25 173.8 3.21"/><polygon class="cls-2" points="176.78 3.21 175.46 3.21 177.02 0.25 178.34 0.25 176.78 3.21"/><polygon class="cls-2" points="179.75 3.21 178.44 3.21 180 0.25 181.31 0.25 179.75 3.21"/><polygon class="cls-2" points="182.72 3.21 181.41 3.21 182.97 0.25 184.28 0.25 182.72 3.21"/><polygon class="cls-2" points="185.7 3.21 184.38 3.21 185.94 0.25 187.26 0.25 185.7 3.21"/><polygon class="cls-2" points="188.67 3.21 187.36 3.21 188.92 0.25 190.23 0.25 188.67 3.21"/><polygon class="cls-2" points="191.64 3.21 190.33 3.21 191.89 0.25 193.2 0.25 191.64 3.21"/><polygon class="cls-2" points="194.62 3.21 193.31 3.21 194.86 0.25 196.18 0.25 194.62 3.21"/><polygon class="cls-2" points="197.59 3.21 196.28 3.21 197.84 0.25 199.15 0.25 197.59 3.21"/><polygon class="cls-2" points="200.56 3.21 199.25 3.21 200.81 0.25 202.12 0.25 200.56 3.21"/><polygon class="cls-2" points="203.54 3.21 202.22 3.21 203.78 0.25 205.1 0.25 203.54 3.21"/><polygon class="cls-2" points="206.51 3.21 205.2 3.21 206.76 0.25 208.07 0.25 206.51 3.21"/><polygon class="cls-2" points="209.49 3.21 208.17 3.21 209.73 0.25 211.04 0.25 209.49 3.21"/></g></g></svg>