<svg xmlns="http://www.w3.org/2000/svg" viewBox="0 0 25.82 30.41"><defs><style>.cls-1,.cls-4{fill:#ed752c;}.cls-2,.cls-6{fill:#040506;}.cls-10,.cls-12,.cls-3,.cls-7{fill:#f8b01c;}.cls-3,.cls-4,.cls-8{stroke:#000;}.cls-10,.cls-11,.cls-12,.cls-13,.cls-3,.cls-4,.cls-5,.cls-6,.cls-7,.cls-8{stroke-miterlimit:10;}.cls-11,.cls-3{stroke-width:0.1px;}.cls-4{stroke-width:0.11px;}.cls-5,.cls-8{fill:none;}.cls-12,.cls-5{stroke:#ed752c;stroke-width:0.3px;}.cls-10,.cls-11,.cls-6,.cls-7{stroke:#1d1d1b;}.cls-10,.cls-6{stroke-width:0.2px;}.cls-7,.cls-8{stroke-width:0.15px;}.cls-9{fill:#253557;}.cls-11{fill:#dce5e7;}.cls-13{fill:#1d1d1b;stroke:#253557;stroke-width:0.25px;}.cls-14{fill:#181e25;}</style></defs><title>Fichier 2</title><g id="Calque_2" data-name="Calque 2"><g id="Calque_2-2" data-name="Calque 2"><polygon class="cls-1" points="13.26 18.4 15.7 19.93 14.47 21.86 12.46 19.87 13.26 18.4"/><rect class="cls-2" x="4.13" y="17.84" width="1.47" height="0.42" transform="translate(-10.93 8.05) rotate(-42.58)"/><rect class="cls-3" x="6.42" y="19.47" width="0.45" height="2.88" rx="0.14" transform="translate(-12.84 10.82) rotate(-45)"/><rect class="cls-4" x="4.1" y="18.97" width="2.01" height="0.81" rx="0.14" transform="translate(15.19 2.06) rotate(45)"/><rect class="cls-3" x="4.15" y="18.4" width="0.65" height="4.52" rx="0.14"/><polyline class="cls-5" points="12.63 19.66 17.15 10.51 24.29 0.2 25.63 0.94 20.61 12.24 14.63 21.65"/><path class="cls-6" d="M3.13,23.12c.09-.32.25-.56.83-.56H7.39s.29-2.14.29-2.14a.76.76,0,0,1,.76-.76h5.32a.76.76,0,0,1,.76.76l.19,2.08a3.67,3.67,0,0,1,.21.64v3.35a.57.57,0,0,1-.56.57H2.89a.57.57,0,0,1-.56-.57Z"/><polygon class="cls-6" points="17.78 25.24 17.31 29.29 20.01 30.3 22.67 30.3 20.39 29.29 19.92 25.24 18.83 24.76 17.78 25.24"/><path class="cls-7" d="M14.92,26.49l2.81-.79-.08.62-2.73.75h-.56s.56-.06.56-.57"/><line class="cls-8" x1="4.48" y1="18.4" x2="24.29" y2="0.2"/><path class="cls-7" d="M16.16,29.29h1.15l.2-1.69H15.89A1.5,1.5,0,0,1,16.16,29.29Z"/><circle class="cls-9" cx="18.83" cy="25.75" r="0.35"/><path class="cls-10" d="M3.13,23.12c.09-.32.25-.56.83-.56H7.21l7.71,2.7v1.23a.57.57,0,0,1-.56.57H2.89a.57.57,0,0,1-.56-.57Z"/><polygon class="cls-11" points="13.73 20.61 11.52 20.61 11.52 23.07 13.73 23.95 13.73 20.61"/><polygon class="cls-11" points="10.5 20.61 8.4 20.61 8.4 21.96 10.5 22.69 10.5 20.61"/><rect class="cls-2" x="8.44" y="19.2" width="0.64" height="0.45" transform="translate(17.52 38.86) rotate(-180)"/><rect class="cls-1" x="8.44" y="18.84" width="0.64" height="0.36" transform="translate(17.52 38.05) rotate(-180)"/><line class="cls-5" x1="16.01" y1="19.49" x2="13.81" y2="17.26"/><line class="cls-5" x1="13.92" y1="17.05" x2="17.06" y2="17.84"/><line class="cls-5" x1="17.31" y1="17.44" x2="14.91" y2="15.15"/><line class="cls-5" x1="18.39" y1="15.74" x2="14.95" y2="14.94"/><line class="cls-5" x1="15.93" y1="12.96" x2="18.56" y2="15.48"/><line class="cls-5" x1="19.75" y1="13.6" x2="16.07" y2="12.68"/><line class="cls-5" x1="17.09" y1="10.61" x2="19.92" y2="13.34"/><line class="cls-5" x1="20.61" y1="12.25" x2="17.26" y2="10.34"/><line class="cls-5" x1="20.76" y1="11.92" x2="18.02" y2="9.24"/><line class="cls-5" x1="21.6" y1="10.02" x2="18.07" y2="9.17"/><line class="cls-5" x1="19.35" y1="7.32" x2="21.75" y2="9.67"/><line class="cls-5" x1="22.57" y1="7.83" x2="19.51" y2="7.1"/><line class="cls-5" x1="20.73" y1="5.34" x2="22.77" y2="7.39"/><line class="cls-5" x1="23.58" y1="5.56" x2="23.49" y2="5.56"/><line class="cls-5" x1="21.02" y1="4.92" x2="23.58" y2="5.56"/><line class="cls-5" x1="23.83" y1="4.99" x2="22.09" y2="3.36"/><line class="cls-5" x1="24.44" y1="3.61" x2="22.23" y2="3.17"/><polygon class="cls-12" points="24.63 3.19 22.92 2.17 24.29 0.2 25.63 0.94 24.63 3.19"/><circle cx="24.35" cy="1.7" r="0.25"/><circle cx="4.48" cy="18.75" r="0.07"/><rect class="cls-13" x="0.13" y="27.06" width="16.16" height="3.18" rx="1.59" transform="translate(16.41 57.3) rotate(180)"/><ellipse class="cls-9" cx="14.42" cy="28.65" rx="0.84" ry="0.87"/><rect class="cls-9" x="1.19" y="27.78" width="11.83" height="1.74"/><path class="cls-14" d="M14.42,29.52a.85.85,0,0,0,.84-.87H13.59A.85.85,0,0,0,14.42,29.52Z"/><rect class="cls-14" x="0.63" y="28.65" width="12.27" height="0.87"/><rect class="cls-2" x="11.02" y="11.34" width="1.67" height="0.55" transform="translate(-4.74 11.09) rotate(-42.58)"/></g></g></svg>